<svg width="65" height="65" viewBox="0 0 65 65" fill="none" xmlns="http://www.w3.org/2000/svg">
<rect width="65" height="65" fill="#F5F5F5"/>
<rect width="1440" height="1358" transform="translate(-84 -35)" fill="white"/>
<rect x="-84" y="-35" width="1440" height="141" fill="white"/>
<circle cx="32.5" cy="32.5" r="32.5" fill="#8D61FF"/>
<circle cx="32.5" cy="32.5" r="32.5" stroke="black"/>
<path d="M50.9947 17.7023L45.5145 12.222C45.0096 11.7172 44.1926 11.7172 43.6877 12.222L41.8609 14.0488C41.3561 14.5537 41.3561 15.3707 41.8609 15.8756L35.6738 22.0627C31.9193 20.4746 27.4121 21.1998 24.3461 24.2566L11.5771 37.0347C9.55762 39.0543 9.55762 42.3222 11.5771 44.3418L18.8842 51.6488C20.9037 53.6683 24.1717 53.6683 26.1912 51.6488L38.9693 38.8707C42.0354 35.8047 42.7514 31.3066 41.1633 27.5429L47.3504 21.3558C47.8553 21.8607 48.6723 21.8607 49.1772 21.3558L51.0039 19.5291C51.4996 19.0242 51.4996 18.2072 50.9947 17.7023ZM24.5205 45.9941L17.2227 38.6963L27.0725 28.8465L34.3795 36.1535L24.5205 45.9941Z" fill="black"/>
</svg>
