<svg width="35" height="35" viewBox="0 0 35 35" fill="none" xmlns="http://www.w3.org/2000/svg">
<g clip-path="url(#clip0_159_577)">
<path d="M10.2085 26.25C8.60433 26.25 7.30641 27.5625 7.30641 29.1666C7.30641 30.7708 8.60433 32.0833 10.2085 32.0833C11.8127 32.0833 13.1252 30.7708 13.1252 29.1666C13.1252 27.5625 11.8127 26.25 10.2085 26.25ZM1.4585 2.91663V5.83329H4.37516L9.62516 16.902L7.65641 20.475C7.42308 20.8833 7.29183 21.3645 7.29183 21.875C7.29183 23.4791 8.60433 24.7916 10.2085 24.7916H27.7085V21.875H10.821C10.6168 21.875 10.4564 21.7145 10.4564 21.5104L10.5002 21.3354L11.8127 18.9583H22.6772C23.771 18.9583 24.7335 18.3604 25.2293 17.4562L30.4502 7.99163C30.5668 7.78746 30.6252 7.53954 30.6252 7.29163C30.6252 6.48954 29.9689 5.83329 29.1668 5.83329H7.59808L6.22725 2.91663H1.4585ZM24.7918 26.25C23.1877 26.25 21.8897 27.5625 21.8897 29.1666C21.8897 30.7708 23.1877 32.0833 24.7918 32.0833C26.396 32.0833 27.7085 30.7708 27.7085 29.1666C27.7085 27.5625 26.396 26.25 24.7918 26.25Z" fill="black"/>
</g>
<defs>
<clipPath id="clip0_159_577">
<rect width="35" height="35" fill="white"/>
</clipPath>
</defs>
</svg>
